<svg xmlns="http://www.w3.org/2000/svg" width="16" height="16" viewBox="0 0 16 16">
  <path id="Detail_View" data-name="Detail View" class="cls-1" d="M1443,1084h-12a2.006,2.006,0,0,1-2-2v-12a2.006,2.006,0,0,1,2-2h12a2.006,2.006,0,0,1,2,2v12A2.006,2.006,0,0,1,1443,1084Zm0-13a1,1,0,0,0-1-1h-10a1,1,0,0,0-1,1v10a1,1,0,0,0,1,1h10a1,1,0,0,0,1-1v-10Zm-2.5,9h-3a0.5,0.5,0,0,1-.5-0.5v-1a0.5,0.5,0,0,1,.5-0.5h3a0.5,0.5,0,0,1,.5.5v1A0.5,0.5,0,0,1,1440.5,1080Zm0-3h-3a0.5,0.5,0,0,1-.5-0.5v-1a0.5,0.5,0,0,1,.5-0.5h3a0.5,0.5,0,0,1,.5.5v1A0.5,0.5,0,0,1,1440.5,1077Zm0-3h-3a0.5,0.5,0,0,1-.5-0.5v-1a0.5,0.5,0,0,1,.5-0.5h3a0.5,0.5,0,0,1,.5.5v1A0.5,0.5,0,0,1,1440.5,1074Zm-6,6h-1a0.5,0.5,0,0,1-.5-0.5v-1a0.5,0.5,0,0,1,.5-0.5h1a0.5,0.5,0,0,1,.5.5v1A0.5,0.5,0,0,1,1434.5,1080Zm0-3h-1a0.5,0.5,0,0,1-.5-0.5v-1a0.5,0.5,0,0,1,.5-0.5h1a0.5,0.5,0,0,1,.5.5v1A0.5,0.5,0,0,1,1434.5,1077Zm0-3h-1a0.5,0.5,0,0,1-.5-0.5v-1a0.5,0.5,0,0,1,.5-0.5h1a0.5,0.5,0,0,1,.5.5v1A0.5,0.5,0,0,1,1434.5,1074Z" transform="translate(-1429 -1068)"/>
</svg>
