<svg xmlns="http://www.w3.org/2000/svg" width="12" height="12" viewBox="0 0 12 12">
  <metadata><?xpacket begin="﻿" id="W5M0MpCehiHzreSzNTczkc9d"?>
<x:xmpmeta xmlns:x="adobe:ns:meta/" x:xmptk="Adobe XMP Core 5.6-c142 79.160924, 2017/07/13-01:06:39        ">
   <rdf:RDF xmlns:rdf="http://www.w3.org/1999/02/22-rdf-syntax-ns#">
      <rdf:Description rdf:about=""/>
   </rdf:RDF>
</x:xmpmeta>
                                                                                                    
                                                                                                    
                                                                                                    
                                                                                                    
                                                                                                    
                                                                                                    
                                                                                                    
                                                                                                    
                                                                                                    
                                                                                                    
                                                                                                    
                                                                                                    
                                                                                                    
                                                                                                    
                                                                                                    
                                                                                                    
                                                                                                    
                                                                                                    
                                                                                                    
                                                                                                    
                           
<?xpacket end="w"?></metadata>
<defs>
    <style>
      .cls-1 {
        fill: #898989;
        fill-rule: evenodd;
      }
    </style>
  </defs>
  <path id="Download" class="cls-1" d="M551.309,1392.03a0.681,0.681,0,0,0-.691.67v2.95h-9.236v-2.95a0.691,0.691,0,0,0-1.382,0v3.63a0.681,0.681,0,0,0,.691.67h10.618a0.681,0.681,0,0,0,.691-0.67v-3.63a0.681,0.681,0,0,0-.691-0.67h0Zm-5.8,1.52a0.724,0.724,0,0,0,.978,0l2.786-2.72a0.658,0.658,0,0,0,0-.95,0.709,0.709,0,0,0-.977,0l-1.607,1.57v-5.78a0.691,0.691,0,0,0-1.382,0v5.78l-1.607-1.57a0.709,0.709,0,0,0-.977,0,0.658,0.658,0,0,0,0,.95Z" transform="translate(-540 -1385)"/>
</svg>
