<svg xmlns="http://www.w3.org/2000/svg" width="14.562" height="13.59" viewBox="0 0 14.562 13.59">
  <path id="Link_Icon" data-name="Link Icon" class="cls-1" d="M158.266,1246.51l-1.865-1.76a2.226,2.226,0,0,0-2.992-.01l-2.069,1.93a1.892,1.892,0,0,0-.008,2.8l1.182-1.08a0.994,0.994,0,0,1,.32-1.02l1.316-1.22a1.1,1.1,0,0,1,1.5,0l1.12,1.06a0.946,0.946,0,0,1,0,1.4l-1.317,1.23a1.264,1.264,0,0,1-1.09.31l-1.158,1.08a2.205,2.205,0,0,0,2.992.01l2.066-1.92A1.9,1.9,0,0,0,158.266,1246.51Zm-7.575,7.05a1.1,1.1,0,0,1-.343,1.04l-1.23,1.15a1.138,1.138,0,0,1-1.523,0l-1.142-1.08a0.969,0.969,0,0,1,0-1.43l1.231-1.14a1.184,1.184,0,0,1,1.106-.31l1.186-1.12a2.267,2.267,0,0,0-3.048-.01l-2,1.86a1.936,1.936,0,0,0-.009,2.86l1.9,1.8a2.256,2.256,0,0,0,3.048,0l2-1.86a1.926,1.926,0,0,0,.009-2.85Zm-1.3-.51a0.745,0.745,0,0,0,1.021.01l3.408-3.24a0.672,0.672,0,0,0,0-.98,0.754,0.754,0,0,0-1.02,0l-3.409,3.24A0.662,0.662,0,0,0,149.4,1253.05Z" transform="translate(-144.313 -1244.19)"/>
</svg>
