<svg xmlns="http://www.w3.org/2000/svg" width="16" height="16" viewBox="0 0 16 16">
  <metadata><?xpacket begin="﻿" id="W5M0MpCehiHzreSzNTczkc9d"?>
<x:xmpmeta xmlns:x="adobe:ns:meta/" x:xmptk="Adobe XMP Core 5.6-c142 79.160924, 2017/07/13-01:06:39        ">
   <rdf:RDF xmlns:rdf="http://www.w3.org/1999/02/22-rdf-syntax-ns#">
      <rdf:Description rdf:about=""/>
   </rdf:RDF>
</x:xmpmeta>
                                                                                                    
                                                                                                    
                                                                                                    
                                                                                                    
                                                                                                    
                                                                                                    
                                                                                                    
                                                                                                    
                                                                                                    
                                                                                                    
                                                                                                    
                                                                                                    
                                                                                                    
                                                                                                    
                                                                                                    
                                                                                                    
                                                                                                    
                                                                                                    
                                                                                                    
                                                                                                    
                           
<?xpacket end="w"?></metadata>
<defs>
    <style>
      .cls-1 {
        fill: #676767;
        fill-rule: evenodd;
      }
    </style>
  </defs>
  <path id="List_View" data-name="List View" class="cls-1" d="M1407,1084h-12a2.006,2.006,0,0,1-2-2v-12a2.006,2.006,0,0,1,2-2h12a2.006,2.006,0,0,1,2,2v12A2.006,2.006,0,0,1,1407,1084Zm0-13a1,1,0,0,0-1-1h-10a1,1,0,0,0-1,1v10a1,1,0,0,0,1,1h10a1,1,0,0,0,1-1v-10Zm-2.5,9h-7a0.5,0.5,0,0,1-.5-0.5v-1a0.5,0.5,0,0,1,.5-0.5h7a0.5,0.5,0,0,1,.5.5v1A0.5,0.5,0,0,1,1404.5,1080Zm0-3h-7a0.5,0.5,0,0,1-.5-0.5v-1a0.5,0.5,0,0,1,.5-0.5h7a0.5,0.5,0,0,1,.5.5v1A0.5,0.5,0,0,1,1404.5,1077Zm0-3h-7a0.5,0.5,0,0,1-.5-0.5v-1a0.5,0.5,0,0,1,.5-0.5h7a0.5,0.5,0,0,1,.5.5v1A0.5,0.5,0,0,1,1404.5,1074Z" transform="translate(-1393 -1068)"/>
</svg>
