<svg xmlns="http://www.w3.org/2000/svg" width="20" height="20" viewBox="0 0 20 20">
  <metadata><?xpacket begin="﻿" id="W5M0MpCehiHzreSzNTczkc9d"?>
<x:xmpmeta xmlns:x="adobe:ns:meta/" x:xmptk="Adobe XMP Core 5.6-c142 79.160924, 2017/07/13-01:06:39        ">
   <rdf:RDF xmlns:rdf="http://www.w3.org/1999/02/22-rdf-syntax-ns#">
      <rdf:Description rdf:about=""/>
   </rdf:RDF>
</x:xmpmeta>
                                                                                                    
                                                                                                    
                                                                                                    
                                                                                                    
                                                                                                    
                                                                                                    
                                                                                                    
                                                                                                    
                                                                                                    
                                                                                                    
                                                                                                    
                                                                                                    
                                                                                                    
                                                                                                    
                                                                                                    
                                                                                                    
                                                                                                    
                                                                                                    
                                                                                                    
                                                                                                    
                           
<?xpacket end="w"?></metadata>
<defs>
    <style>
      .cls-1 {
        fill: #676767;
        fill-rule: evenodd;
      }
    </style>
  </defs>
  <path id="Setting_Icon" data-name="Setting Icon" class="cls-1" d="M1394.5,1005.22v1.56l-2.11.57a7.422,7.422,0,0,1-.38,1.42l1.54,1.55-0.78,1.36-2.12-.56a7.718,7.718,0,0,1-1.04,1.02l0.57,2.13-1.36.78-1.56-1.55a8.238,8.238,0,0,1-1.4.37l-0.58,2.13h-1.56l-0.58-2.14a7.325,7.325,0,0,1-1.39-.38l-1.57,1.57-1.36-.78,0.57-2.16a7.958,7.958,0,0,1-1-1.01l-2.16.58-0.78-1.36,1.58-1.59a7.567,7.567,0,0,1-.37-1.36l-2.16-.59v-1.56l2.16-.59a7.567,7.567,0,0,1,.37-1.36l-1.58-1.59,0.78-1.36,2.16,0.58a8.589,8.589,0,0,1,1-1.009l-0.57-2.16,1.36-.783,1.57,1.567a8.139,8.139,0,0,1,1.39-.375l0.58-2.14h1.56l0.58,2.132a7.967,7.967,0,0,1,1.4.37l1.56-1.554,1.36,0.783-0.56,2.123a8.756,8.756,0,0,1,1.03,1.026l2.12-.56,0.78,1.36-1.54,1.55a7.422,7.422,0,0,1,.38,1.42Zm-9.97-5.7A6.473,6.473,0,1,0,1391,1006,6.474,6.474,0,0,0,1384.53,999.525Zm4.3,10.065-3.78-3.69,1.43-5.16A5.612,5.612,0,0,1,1388.83,1009.59Zm-9.84-2.68a6.838,6.838,0,0,1-.07-0.91,5.608,5.608,0,0,1,5.61-5.61,5.226,5.226,0,0,1,.97.09l-1.41,5.1Zm9.12,3.4a5.6,5.6,0,0,1-8.86-2.42l5.04-1.32Z" transform="translate(-1374.5 -996)"/>
</svg>
