<svg xmlns="http://www.w3.org/2000/svg" width="11.969" height="12" viewBox="0 0 11.969 12">
  <metadata><?xpacket begin="﻿" id="W5M0MpCehiHzreSzNTczkc9d"?>
<x:xmpmeta xmlns:x="adobe:ns:meta/" x:xmptk="Adobe XMP Core 5.6-c142 79.160924, 2017/07/13-01:06:39        ">
   <rdf:RDF xmlns:rdf="http://www.w3.org/1999/02/22-rdf-syntax-ns#">
      <rdf:Description rdf:about=""/>
   </rdf:RDF>
</x:xmpmeta>
                                                                                                    
                                                                                                    
                                                                                                    
                                                                                                    
                                                                                                    
                                                                                                    
                                                                                                    
                                                                                                    
                                                                                                    
                                                                                                    
                                                                                                    
                                                                                                    
                                                                                                    
                                                                                                    
                                                                                                    
                                                                                                    
                                                                                                    
                                                                                                    
                                                                                                    
                                                                                                    
                           
<?xpacket end="w"?></metadata>
<defs>
    <style>
      .cls-1 {
        fill: #888;
        fill-rule: evenodd;
      }
    </style>
  </defs>
  <path id="Share" class="cls-1" d="M543.979,1364.71a0.273,0.273,0,0,0,.213-0.31l-0.122-.71a0.259,0.259,0,0,0-.3-0.22l-1.292.23a3.941,3.941,0,0,1,.617-0.6,3.877,3.877,0,0,1,2.392-.84h0.141a0.227,0.227,0,0,0,.189-0.07,0.262,0.262,0,0,0,.083-0.19l0.026-.72a0.268,0.268,0,0,0-.07-0.19,0.315,0.315,0,0,0-.183-0.09h-0.184a5.078,5.078,0,0,0-3.139,1.1,4.941,4.941,0,0,0-.884.88l-0.23-1.34a0.26,0.26,0,0,0-.3-0.22l-0.689.12a0.277,0.277,0,0,0-.213.32l0.548,3.19a0.282,0.282,0,0,0,.108.18,0.272,0.272,0,0,0,.15.05,0.076,0.076,0,0,0,.046-0.01Zm7.983-1.16a0.266,0.266,0,0,0-.153-0.13l-3-1a0.27,0.27,0,0,0-.33.18l-0.962,3.09a0.275,0.275,0,0,0,.17.34l0.666,0.22a0.226,0.226,0,0,0,.081.01,0.257,0.257,0,0,0,.12-0.03,0.273,0.273,0,0,0,.13-0.15l0.4-1.29a4.161,4.161,0,0,1-.234,3.54,0.268,0.268,0,0,0-.026.2,0.29,0.29,0,0,0,.123.17l0.607,0.36a0.3,0.3,0,0,0,.13.03,0.249,0.249,0,0,0,.228-0.13,5.474,5.474,0,0,0,.611-3.54,5.413,5.413,0,0,0-.351-1.22l1.263,0.42a0.27,0.27,0,0,0,.33-0.18l0.214-.68A0.286,0.286,0,0,0,551.962,1363.55Zm-7.155,4.39a0.318,0.318,0,0,0-.189-0.07,0.307,0.307,0,0,0-.182.09l-0.473.53a0.287,0.287,0,0,0,.017.39l0.969,0.91a4.049,4.049,0,0,1-.841-0.14,3.942,3.942,0,0,1-2.185-1.56,0.255,0.255,0,0,0-.366-0.06l-0.571.42a0.258,0.258,0,0,0-.106.17,0.27,0.27,0,0,0,.045.2,5.188,5.188,0,0,0,2.865,2.05,5.049,5.049,0,0,0,1.223.18l-0.895,1.01a0.273,0.273,0,0,0,.016.38l0.517,0.49a0.286,0.286,0,0,0,.177.07h0.012a0.262,0.262,0,0,0,.182-0.09l2.126-2.39a0.287,0.287,0,0,0-.016-0.39Z" transform="translate(-540.031 -1361)"/>
</svg>
