<svg xmlns="http://www.w3.org/2000/svg" width="16" height="16" viewBox="0 0 16 16">
  <path id="Thumb_View" data-name="Thumb View" class="cls-1" d="M1371,1084h-12a2.006,2.006,0,0,1-2-2v-12a2.006,2.006,0,0,1,2-2h12a2.006,2.006,0,0,1,2,2v12A2.006,2.006,0,0,1,1371,1084Zm0-13a1,1,0,0,0-1-1h-10a1,1,0,0,0-1,1v10a1,1,0,0,0,1,1h10a1,1,0,0,0,1-1v-10Zm-3,9h-1a1,1,0,0,1-1-1v-1a1,1,0,0,1,1-1h1a1,1,0,0,1,1,1v1A1,1,0,0,1,1368,1080Zm0-5h-1a1,1,0,0,1-1-1v-1a1,1,0,0,1,1-1h1a1,1,0,0,1,1,1v1A1,1,0,0,1,1368,1075Zm-5,5h-1a1,1,0,0,1-1-1v-1a1,1,0,0,1,1-1h1a1,1,0,0,1,1,1v1A1,1,0,0,1,1363,1080Zm0-5h-1a1,1,0,0,1-1-1v-1a1,1,0,0,1,1-1h1a1,1,0,0,1,1,1v1A1,1,0,0,1,1363,1075Z" transform="translate(-1357 -1068)"/>
</svg>
